<svg width="800" height="200" viewBox="0 0 800 200" xmlns="http://www.w3.org/2000/svg">
  <path d="M0,100 Q50,20 100,100 Q150,180 200,100 Q250,20 300,100 Q350,180 400,100 Q450,20 500,100 Q550,180 600,100 Q650,20 700,100 Q750,180 800,100" stroke="#ff00ff" stroke-width="3" fill="none" opacity="0.7"/>
  <path d="M0,100 Q50,30 100,100 Q150,170 200,100 Q250,30 300,100 Q350,170 400,100 Q450,30 500,100 Q550,170 600,100 Q650,30 700,100 Q750,170 800,100" stroke="#00ffff" stroke-width="2" fill="none" opacity="0.5"/>
</svg>